<svg width="4453" height="2288" xmlns="http://www.w3.org/2000/svg" xmlns:xlink="http://www.w3.org/1999/xlink" xml:space="preserve" overflow="hidden"><defs><filter id="fx0" x="-10%" y="-10%" width="120%" height="120%" filterUnits="userSpaceOnUse" primitiveUnits="userSpaceOnUse"><feComponentTransfer color-interpolation-filters="sRGB"><feFuncR type="discrete" tableValues="0 0"/><feFuncG type="discrete" tableValues="0 0"/><feFuncB type="discrete" tableValues="0 0"/><feFuncA type="linear" slope="0.4" intercept="0"/></feComponentTransfer><feGaussianBlur stdDeviation="7.63889 7.63889"/></filter><filter id="fx1" x="-10%" y="-10%" width="120%" height="120%" filterUnits="userSpaceOnUse" primitiveUnits="userSpaceOnUse"><feComponentTransfer color-interpolation-filters="sRGB"><feFuncR type="discrete" tableValues="0 0"/><feFuncG type="discrete" tableValues="0 0"/><feFuncB type="discrete" tableValues="0 0"/><feFuncA type="linear" slope="0.4" intercept="0"/></feComponentTransfer><feGaussianBlur stdDeviation="7.63889 7.63889"/></filter><filter id="fx2" x="-10%" y="-10%" width="120%" height="120%" filterUnits="userSpaceOnUse" primitiveUnits="userSpaceOnUse"><feComponentTransfer color-interpolation-filters="sRGB"><feFuncR type="discrete" tableValues="0 0"/><feFuncG type="discrete" tableValues="0 0"/><feFuncB type="discrete" tableValues="0 0"/><feFuncA type="linear" slope="0.4" intercept="0"/></feComponentTransfer><feGaussianBlur stdDeviation="7.63889 7.63889"/></filter></defs><g transform="translate(9 -45)"><rect x="0.499836" y="47.4999" width="4413" height="2279" stroke="#FFFFFF" stroke-width="4.58333" stroke-miterlimit="8" fill="#FFFFFF"/><path d="M1617.5 1404.5C1617.5 1090.8 1871.8 836.5 2185.5 836.5 2499.2 836.5 2753.5 1090.8 2753.5 1404.5 2753.5 1718.2 2499.2 1972.5 2185.5 1972.5 1871.8 1972.5 1617.5 1718.2 1617.5 1404.5ZM1724.39 1404.5C1724.39 1659.17 1930.83 1865.61 2185.5 1865.61 2440.17 1865.61 2646.61 1659.17 2646.61 1404.5 2646.61 1149.83 2440.17 943.386 2185.5 943.386 1930.83 943.386 1724.39 1149.83 1724.39 1404.5Z" stroke="#F2F2F2" stroke-width="4.58333" stroke-miterlimit="8" fill="#EFF1F7" fill-rule="evenodd"/><g filter="url(#fx0)" transform="translate(1809 404)"><g><path d="M24.0901 376C24.0901 181.651 181.869 24.0998 376.5 24.0998 571.131 24.0998 728.91 181.651 728.91 376 728.91 570.349 571.131 727.9 376.5 727.9 181.869 727.9 24.0901 570.349 24.0901 376Z" fill="#7194A7" fill-rule="evenodd"/></g></g><path d="M1840 780C1840 589.462 1994.69 435 2185.5 435 2376.31 435 2531 589.462 2531 780 2531 970.538 2376.31 1125 2185.5 1125 1994.69 1125 1840 970.538 1840 780Z" fill="#7194A7" fill-rule="evenodd"/><text fill="#FFFFFF" font-family="Comic Sans MS,Comic Sans MS_MSFontService,sans-serif" font-weight="700" font-size="64" transform="matrix(1 0 0 1 2033.5 701)">Advancing </text><text fill="#FFFFFF" font-family="Comic Sans MS,Comic Sans MS_MSFontService,sans-serif" font-weight="700" font-size="64" transform="matrix(1 0 0 1 1929.23 788)">Methodology for </text><text fill="#FFFFFF" font-family="Comic Sans MS,Comic Sans MS_MSFontService,sans-serif" font-weight="700" font-size="64" transform="matrix(1 0 0 1 2042.66 875)">Intensive </text><text fill="#FFFFFF" font-family="Comic Sans MS,Comic Sans MS_MSFontService,sans-serif" font-weight="700" font-size="64" transform="matrix(1 0 0 1 1916.9 963)">Longitudinal Data</text><g filter="url(#fx1)" transform="translate(1118 1285)"><g><path d="M24.0902 376.5C24.0902 181.869 181.87 24.0898 376.5 24.0898 571.131 24.0898 728.91 181.869 728.91 376.5 728.91 571.131 571.131 728.91 376.5 728.91 181.87 728.91 24.0902 571.131 24.0902 376.5Z" fill="#9B82BB" fill-rule="evenodd"/></g></g><path d="M1149 1661.5C1149 1470.69 1303.69 1316 1494.5 1316 1685.31 1316 1840 1470.69 1840 1661.5 1840 1852.31 1685.31 2007 1494.5 2007 1303.69 2007 1149 1852.31 1149 1661.5Z" fill="#9B82BB" fill-rule="evenodd"/><text fill="#FFFFFF" font-family="Comic Sans MS,Comic Sans MS_MSFontService,sans-serif" font-weight="700" font-size="64" transform="matrix(1 0 0 1 1263.97 1583)">Integrating AI </text><text fill="#FFFFFF" font-family="Comic Sans MS,Comic Sans MS_MSFontService,sans-serif" font-weight="700" font-size="64" transform="matrix(1 0 0 1 1301.78 1670)">and Machine </text><text fill="#FFFFFF" font-family="Comic Sans MS,Comic Sans MS_MSFontService,sans-serif" font-weight="700" font-size="64" transform="matrix(1 0 0 1 1294.06 1757)">Learning into </text><text fill="#FFFFFF" font-family="Comic Sans MS,Comic Sans MS_MSFontService,sans-serif" font-weight="700" font-size="64" transform="matrix(1 0 0 1 1229.32 1845)">Dynamic Analysis</text><g filter="url(#fx2)" transform="translate(2500 1285)"><g><path d="M24.0901 376.5C24.0901 181.869 181.869 24.0898 376.5 24.0898 571.131 24.0898 728.91 181.869 728.91 376.5 728.91 571.131 571.131 728.91 376.5 728.91 181.869 728.91 24.0901 571.131 24.0901 376.5Z" fill="#72AD8F" fill-rule="evenodd"/></g></g><path d="M2531 1661.5C2531 1470.69 2685.69 1316 2876.5 1316 3067.31 1316 3222 1470.69 3222 1661.5 3222 1852.31 3067.31 2007 2876.5 2007 2685.69 2007 2531 1852.31 2531 1661.5Z" fill="#72AD8F" fill-rule="evenodd"/><text fill="#FFFFFF" font-family="Comic Sans MS,Comic Sans MS_MSFontService,sans-serif" font-weight="700" font-size="64" transform="matrix(1 0 0 1 2703.98 1583)">Translating </text><text fill="#FFFFFF" font-family="Comic Sans MS,Comic Sans MS_MSFontService,sans-serif" font-weight="700" font-size="64" transform="matrix(1 0 0 1 2673.05 1670)">Methods into </text><text fill="#FFFFFF" font-family="Comic Sans MS,Comic Sans MS_MSFontService,sans-serif" font-weight="700" font-size="64" transform="matrix(1 0 0 1 2647.56 1757)">Clinical</text><text fill="#FFFFFF" font-family="Comic Sans MS,Comic Sans MS_MSFontService,sans-serif" font-weight="700" font-size="64" transform="matrix(1 0 0 1 2860.69 1757)">-</text><text fill="#FFFFFF" font-family="Comic Sans MS,Comic Sans MS_MSFontService,sans-serif" font-weight="700" font-size="64" transform="matrix(1 0 0 1 2899.65 1757)">Health </text><text fill="#FFFFFF" font-family="Comic Sans MS,Comic Sans MS_MSFontService,sans-serif" font-weight="700" font-size="64" transform="matrix(1 0 0 1 2693.1 1845)">Applications</text><text fill="#7194A7" font-family="Comic Sans MS,Comic Sans MS_MSFontService,sans-serif" font-weight="700" font-size="64" transform="matrix(1 0 0 1 2780 905)">Reliability estimation and interpretation</text><text fill="#7194A7" font-family="Comic Sans MS,Comic Sans MS_MSFontService,sans-serif" font-weight="700" font-size="64" transform="matrix(1 0 0 1 912.958 394)">Time</text><text fill="#7194A7" font-family="Comic Sans MS,Comic Sans MS_MSFontService,sans-serif" font-weight="700" font-size="64" transform="matrix(1 0 0 1 1061.34 394)">-</text><text fill="#7194A7" font-family="Comic Sans MS,Comic Sans MS_MSFontService,sans-serif" font-weight="700" font-size="64" transform="matrix(1 0 0 1 1100.3 394)">Related Issues</text><text fill="#404040" font-family="Comic Sans MS,Comic Sans MS_MSFontService,sans-serif" font-weight="400" font-size="64" transform="matrix(1 0 0 1 866.277 471)">-</text><text fill="#404040" font-family="Comic Sans MS,Comic Sans MS_MSFontService,sans-serif" font-weight="400" font-size="64" transform="matrix(1 0 0 1 912.11 471)">Temporal misalignment</text><text fill="#404040" font-family="Comic Sans MS,Comic Sans MS_MSFontService,sans-serif" font-weight="400" font-size="64" transform="matrix(1 0 0 1 866.277 548)">-</text><text fill="#404040" font-family="Comic Sans MS,Comic Sans MS_MSFontService,sans-serif" font-weight="400" font-size="64" transform="matrix(1 0 0 1 912.11 548)">Timescale mismatch</text><text fill="#404040" font-family="Comic Sans MS,Comic Sans MS_MSFontService,sans-serif" font-weight="400" font-size="64" transform="matrix(1 0 0 1 866.277 625)">-</text><text fill="#404040" font-family="Comic Sans MS,Comic Sans MS_MSFontService,sans-serif" font-weight="400" font-size="64" transform="matrix(1 0 0 1 912.11 625)">Optimal time intervals</text><text fill="#7194A7" font-family="Comic Sans MS,Comic Sans MS_MSFontService,sans-serif" font-weight="700" font-size="64" transform="matrix(1 0 0 1 493.77 799)">Dynamic Bidirectional Relations</text><text fill="#404040" font-family="Comic Sans MS,Comic Sans MS_MSFontService,sans-serif" font-weight="400" font-size="64" transform="matrix(1 0 0 1 247.416 876)">-</text><text fill="#404040" font-family="Comic Sans MS,Comic Sans MS_MSFontService,sans-serif" font-weight="400" font-size="64" transform="matrix(1 0 0 1 293.25 876)">Feedback loops in dynamic SEM</text><text fill="#404040" font-family="Comic Sans MS,Comic Sans MS_MSFontService,sans-serif" font-weight="400" font-size="64" transform="matrix(1 0 0 1 247.416 953)">-</text><text fill="#404040" font-family="Comic Sans MS,Comic Sans MS_MSFontService,sans-serif" font-weight="400" font-size="64" transform="matrix(1 0 0 1 293.25 953)">Bivariate differential equation models (e.g., </text><text fill="#404040" font-family="Comic Sans MS,Comic Sans MS_MSFontService,sans-serif" font-weight="400" font-size="64" transform="matrix(1 0 0 1 247.416 1030)">coupled oscillator models, predator</text><text fill="#404040" font-family="Comic Sans MS,Comic Sans MS_MSFontService,sans-serif" font-weight="400" font-size="64" transform="matrix(1 0 0 1 1298.15 1030)">-</text><text fill="#404040" font-family="Comic Sans MS,Comic Sans MS_MSFontService,sans-serif" font-weight="400" font-size="64" transform="matrix(1 0 0 1 1325.07 1030)">prey models)</text><path d="M1629.5 371.5 1941.99 371.5 1941.99 536.565" stroke="#7194A7" stroke-width="6.875" stroke-linecap="square" stroke-miterlimit="8" stroke-dasharray="20.625 6.875" fill="none" fill-rule="evenodd"/><path d="M0 0 247.647 0 247.647 167.412" stroke="#7194A7" stroke-width="6.875" stroke-linecap="square" stroke-miterlimit="8" stroke-dasharray="20.625 6.875" fill="none" fill-rule="evenodd" transform="matrix(-1 1.22465e-16 1.22465e-16 1 2678.15 368.5)"/><text fill="#9B82BB" font-family="Comic Sans MS,Comic Sans MS_MSFontService,sans-serif" font-weight="700" font-size="64" transform="matrix(1 0 0 1 420.867 1240)">Machine Learning</text><text fill="#404040" font-family="Comic Sans MS,Comic Sans MS_MSFontService,sans-serif" font-weight="400" font-size="64" transform="matrix(1 0 0 1 211.18 1317)">Mixed</text><text fill="#404040" font-family="Comic Sans MS,Comic Sans MS_MSFontService,sans-serif" font-weight="400" font-size="64" transform="matrix(1 0 0 1 396.232 1317)">-</text><text fill="#404040" font-family="Comic Sans MS,Comic Sans MS_MSFontService,sans-serif" font-weight="400" font-size="64" transform="matrix(1 0 0 1 423.159 1317)">effects machine learning</text><text fill="#404040" font-family="Comic Sans MS,Comic Sans MS_MSFontService,sans-serif" font-weight="400" font-size="64" transform="matrix(1 0 0 1 339.238 1394)">Causal machine learning</text><text fill="#9B82BB" font-family="Comic Sans MS,Comic Sans MS_MSFontService,sans-serif" font-weight="700" font-size="64" transform="matrix(1 0 0 1 309.797 2047)">Focused Applications</text><text fill="#404040" font-family="Comic Sans MS,Comic Sans MS_MSFontService,sans-serif" font-weight="400" font-size="64" transform="matrix(1 0 0 1 233.026 2124)">Momentary risk prediction</text><text fill="#404040" font-family="Comic Sans MS,Comic Sans MS_MSFontService,sans-serif" font-weight="400" font-size="64" transform="matrix(1 0 0 1 68.5991 2201)">Insight &amp; recommendation generation</text><text fill="#404040" font-family="Comic Sans MS,Comic Sans MS_MSFontService,sans-serif" font-weight="400" font-size="64" transform="matrix(1 0 0 1 158.249 2278)">Adaptive real</text><text fill="#404040" font-family="Comic Sans MS,Comic Sans MS_MSFontService,sans-serif" font-weight="400" font-size="64" transform="matrix(1 0 0 1 559.291 2278)">-</text><text fill="#404040" font-family="Comic Sans MS,Comic Sans MS_MSFontService,sans-serif" font-weight="400" font-size="64" transform="matrix(1 0 0 1 586.218 2278)">time intervention</text><path d="M1032.5 1211.5 1250.91 1211.5 1250.91 1417.49" stroke="#9B82BB" stroke-width="6.875" stroke-linecap="square" stroke-miterlimit="8" stroke-dasharray="20.625 6.875" fill="none" fill-rule="evenodd"/><text fill="#9B82BB" font-family="Comic Sans MS,Comic Sans MS_MSFontService,sans-serif" font-weight="700" font-size="64" transform="matrix(1 0 0 1 63.3301 1523)">Large Language Models (LLMs)</text><text fill="#404040" font-family="Comic Sans MS,Comic Sans MS_MSFontService,sans-serif" font-weight="400" font-size="64" transform="matrix(1 0 0 1 180.205 1600)">LLM for multimodal ILD </text><text fill="#404040" font-family="Comic Sans MS,Comic Sans MS_MSFontService,sans-serif" font-weight="400" font-size="64" transform="matrix(1 0 0 1 29.528 1677)">(</text><text fill="#404040" font-family="Comic Sans MS,Comic Sans MS_MSFontService,sans-serif" font-weight="400" font-size="64" transform="matrix(1 0 0 1 53.0176 1677)">self</text><text fill="#404040" font-family="Comic Sans MS,Comic Sans MS_MSFontService,sans-serif" font-weight="400" font-size="64" transform="matrix(1 0 0 1 169.893 1677)">-</text><text fill="#404040" font-family="Comic Sans MS,Comic Sans MS_MSFontService,sans-serif" font-weight="400" font-size="64" transform="matrix(1 0 0 1 196.82 1677)">report</text><text fill="#404040" font-family="Comic Sans MS,Comic Sans MS_MSFontService,sans-serif" font-weight="400" font-size="64" transform="matrix(1 0 0 1 392.184 1677)">s</text><text fill="#404040" font-family="Comic Sans MS,Comic Sans MS_MSFontService,sans-serif" font-weight="400" font-size="64" transform="matrix(1 0 0 1 423.695 1677)">, </text><text fill="#404040" font-family="Comic Sans MS,Comic Sans MS_MSFontService,sans-serif" font-weight="400" font-size="64" transform="matrix(1 0 0 1 460.361 1677)">digital</text><text fill="#404040" font-family="Comic Sans MS,Comic Sans MS_MSFontService,sans-serif" font-weight="400" font-size="64" transform="matrix(1 0 0 1 648.278 1677)">-</text><text fill="#404040" font-family="Comic Sans MS,Comic Sans MS_MSFontService,sans-serif" font-weight="400" font-size="64" transform="matrix(1 0 0 1 675.205 1677)">phenotyping, </text><text fill="#404040" font-family="Comic Sans MS,Comic Sans MS_MSFontService,sans-serif" font-weight="400" font-size="64" transform="matrix(1 0 0 1 140.674 1754)">text, audio and video data)</text><path d="M0 0 218.414 0 218.414 120.373" stroke="#9B82BB" stroke-width="6.875" stroke-linecap="square" stroke-miterlimit="8" stroke-dasharray="20.625 6.875" fill="none" fill-rule="evenodd" transform="matrix(1 0 0 -1 1032.5 2026.87)"/><path d="M0 0 154.558 0.000360892" stroke="#9B82BB" stroke-width="6.875" stroke-linecap="square" stroke-miterlimit="8" stroke-dasharray="20.625 6.875" fill="none" fill-rule="evenodd" transform="matrix(-1 0 0 1 1196.06 1508.5)"/><path d="M3121.5 1418.44 3121.5 1238.5 3315.59 1238.5" stroke="#72AD8F" stroke-width="6.875" stroke-linecap="square" stroke-miterlimit="8" stroke-dasharray="20.625 6.875" fill="none" fill-rule="evenodd"/><text fill="#72AD8F" font-family="Comic Sans MS,Comic Sans MS_MSFontService,sans-serif" font-weight="700" font-size="64" transform="matrix(1 0 0 1 3337.22 1254)">Stress dynamics </text><text fill="#404040" font-family="Comic Sans MS,Comic Sans MS_MSFontService,sans-serif" font-weight="400" font-size="64" transform="matrix(1 0 0 1 3873.47 1254)">(e.g., dynamic </text><text fill="#404040" font-family="Comic Sans MS,Comic Sans MS_MSFontService,sans-serif" font-weight="400" font-size="64" transform="matrix(1 0 0 1 3337.22 1331)">bidirectional system of stress </text><text fill="#404040" font-family="Comic Sans MS,Comic Sans MS_MSFontService,sans-serif" font-weight="400" font-size="64" transform="matrix(1 0 0 1 3337.22 1408)">processes based on feedback loops)</text><text fill="#72AD8F" font-family="Comic Sans MS,Comic Sans MS_MSFontService,sans-serif" font-weight="700" font-size="64" transform="matrix(1 0 0 1 3337.22 1540)">Depressive states </text><text fill="#404040" font-family="Comic Sans MS,Comic Sans MS_MSFontService,sans-serif" font-weight="400" font-size="64" transform="matrix(1 0 0 1 3920.45 1540)">(e.g., real</text><text fill="#404040" font-family="Comic Sans MS,Comic Sans MS_MSFontService,sans-serif" font-weight="400" font-size="64" transform="matrix(1 0 0 1 4197.75 1540)">-</text><text fill="#404040" font-family="Comic Sans MS,Comic Sans MS_MSFontService,sans-serif" font-weight="400" font-size="64" transform="matrix(1 0 0 1 4224.67 1540)">time </text><text fill="#404040" font-family="Comic Sans MS,Comic Sans MS_MSFontService,sans-serif" font-weight="400" font-size="64" transform="matrix(1 0 0 1 3337.22 1617)">forecasting of depressive risks </text><text fill="#404040" font-family="Comic Sans MS,Comic Sans MS_MSFontService,sans-serif" font-weight="400" font-size="64" transform="matrix(1 0 0 1 3337.22 1694)">using mixed</text><text fill="#404040" font-family="Comic Sans MS,Comic Sans MS_MSFontService,sans-serif" font-weight="400" font-size="64" transform="matrix(1 0 0 1 3684.41 1694)">-</text><text fill="#404040" font-family="Comic Sans MS,Comic Sans MS_MSFontService,sans-serif" font-weight="400" font-size="64" transform="matrix(1 0 0 1 3711.34 1694)">effects ML and LLMs)</text><text fill="#7194A7" font-family="Comic Sans MS,Comic Sans MS_MSFontService,sans-serif" font-weight="700" font-size="64" transform="matrix(1 0 0 1 1698.31 129)">Intensive Longitudinal Interventions</text><text fill="#404040" font-family="Comic Sans MS,Comic Sans MS_MSFontService,sans-serif" font-weight="400" font-size="64" transform="matrix(1 0 0 1 1534.45 206)">-</text><text fill="#404040" font-family="Comic Sans MS,Comic Sans MS_MSFontService,sans-serif" font-weight="400" font-size="64" transform="matrix(1 0 0 1 1580.29 206)">Time</text><text fill="#404040" font-family="Comic Sans MS,Comic Sans MS_MSFontService,sans-serif" font-weight="400" font-size="64" transform="matrix(1 0 0 1 1726.38 206)">-</text><text fill="#404040" font-family="Comic Sans MS,Comic Sans MS_MSFontService,sans-serif" font-weight="400" font-size="64" transform="matrix(1 0 0 1 1753.31 206)">varying effect models based on GA(M)M</text><text fill="#404040" font-family="Comic Sans MS,Comic Sans MS_MSFontService,sans-serif" font-weight="400" font-size="64" transform="matrix(1 0 0 1 1534.45 283)">-</text><text fill="#404040" font-family="Comic Sans MS,Comic Sans MS_MSFontService,sans-serif" font-weight="400" font-size="64" transform="matrix(1 0 0 1 1580.29 283)">A comprehensive effect size framework</text><text fill="#7194A7" font-family="Comic Sans MS,Comic Sans MS_MSFontService,sans-serif" font-weight="700" font-size="64" transform="matrix(1 0 0 1 2779.11 1014)">Planned missing designs for ILD …</text><text fill="#7194A7" font-family="Comic Sans MS,Comic Sans MS_MSFontService,sans-serif" font-weight="700" font-size="64" transform="matrix(1 0 0 1 2762.26 397)">Bayesian </text><text fill="#7194A7" font-family="Comic Sans MS,Comic Sans MS_MSFontService,sans-serif" font-weight="700" font-size="64" transform="matrix(1 0 0 1 3056.74 397)">estimat</text><text fill="#7194A7" font-family="Comic Sans MS,Comic Sans MS_MSFontService,sans-serif" font-weight="700" font-size="64" transform="matrix(1 0 0 1 3288.2 397)">i</text><text fill="#7194A7" font-family="Comic Sans MS,Comic Sans MS_MSFontService,sans-serif" font-weight="700" font-size="64" transform="matrix(1 0 0 1 3305.96 397)">on </text><text fill="#7194A7" font-family="Comic Sans MS,Comic Sans MS_MSFontService,sans-serif" font-weight="700" font-size="64" transform="matrix(1 0 0 1 3401.64 397)">and model evaluation </text><text fill="#404040" font-family="Comic Sans MS,Comic Sans MS_MSFontService,sans-serif" font-weight="400" font-size="64" transform="matrix(1 0 0 1 2718.42 474)">(Developing R package </text><text fill="#404040" font-family="Consolas,Consolas_MSFontService,sans-serif" font-style="italic" font-weight="400" font-size="64" transform="matrix(1 0 0 1 3393.32 474)">bleval</text><text fill="#404040" font-family="Comic Sans MS,Comic Sans MS_MSFontService,sans-serif" font-weight="400" font-size="64" transform="matrix(1 0 0 1 3625.35 474)">for information </text><text fill="#404040" font-family="Comic Sans MS,Comic Sans MS_MSFontService,sans-serif" font-weight="400" font-size="64" transform="matrix(1 0 0 1 2822.69 551)">criteria and Bayes factor </text><text fill="#404040" font-family="Comic Sans MS,Comic Sans MS_MSFontService,sans-serif" font-weight="400" font-size="64" transform="matrix(1 0 0 1 3597.85 551)">comp</text><text fill="#404040" font-family="Comic Sans MS,Comic Sans MS_MSFontService,sans-serif" font-weight="400" font-size="64" transform="matrix(1 0 0 1 3749.1 551)">u</text><text fill="#404040" font-family="Comic Sans MS,Comic Sans MS_MSFontService,sans-serif" font-weight="400" font-size="64" transform="matrix(1 0 0 1 3782.33 551)">tation</text><text fill="#404040" font-family="Comic Sans MS,Comic Sans MS_MSFontService,sans-serif" font-weight="400" font-size="64" transform="matrix(1 0 0 1 3961.08 551)">)</text><text fill="#7194A7" font-family="Comic Sans MS,Comic Sans MS_MSFontService,sans-serif" font-weight="700" font-size="64" transform="matrix(1 0 0 1 2807.97 675)">Low within</text><text fill="#7194A7" font-family="Comic Sans MS,Comic Sans MS_MSFontService,sans-serif" font-weight="700" font-size="64" transform="matrix(1 0 0 1 3130.52 675)">-</text><text fill="#7194A7" font-family="Comic Sans MS,Comic Sans MS_MSFontService,sans-serif" font-weight="700" font-size="64" transform="matrix(1 0 0 1 3169.48 675)">person variability </text><text fill="#404040" font-family="Comic Sans MS,Comic Sans MS_MSFontService,sans-serif" font-weight="400" font-size="64" transform="matrix(1 0 0 1 3733.8 675)">(e.g., non</text><text fill="#404040" font-family="Comic Sans MS,Comic Sans MS_MSFontService,sans-serif" font-weight="400" font-size="64" transform="matrix(1 0 0 1 3996.2 675)">-</text><text fill="#404040" font-family="Comic Sans MS,Comic Sans MS_MSFontService,sans-serif" font-weight="400" font-size="64" transform="matrix(1 0 0 1 2733.21 752)">varying individuals, left</text><text fill="#404040" font-family="Comic Sans MS,Comic Sans MS_MSFontService,sans-serif" font-weight="400" font-size="64" transform="matrix(1 0 0 1 3426.44 752)">-</text><text fill="#404040" font-family="Comic Sans MS,Comic Sans MS_MSFontService,sans-serif" font-weight="400" font-size="64" transform="matrix(1 0 0 1 3453.37 752)">skewed </text><text fill="#404040" font-family="Comic Sans MS,Comic Sans MS_MSFontService,sans-serif" font-weight="400" font-size="64" transform="matrix(1 0 0 1 3689.98 752)">distribution</text><text fill="#404040" font-family="Comic Sans MS,Comic Sans MS_MSFontService,sans-serif" font-weight="400" font-size="64" transform="matrix(1 0 0 1 4042.9 752)">s</text><text fill="#404040" font-family="Comic Sans MS,Comic Sans MS_MSFontService,sans-serif" font-weight="400" font-size="64" transform="matrix(1 0 0 1 4074.41 752)">)</text><text fill="#72AD8F" font-family="Comic Sans MS,Comic Sans MS_MSFontService,sans-serif" font-weight="700" font-size="64" transform="matrix(1 0 0 1 3337.22 1849)">Family dynamics </text><text fill="#404040" font-family="Comic Sans MS,Comic Sans MS_MSFontService,sans-serif" font-weight="400" font-size="64" transform="matrix(1 0 0 1 3863.74 1849)">(e.g., dynamic </text><text fill="#404040" font-family="Comic Sans MS,Comic Sans MS_MSFontService,sans-serif" font-weight="400" font-size="64" transform="matrix(1 0 0 1 3337.22 1926)">processes of parent</text><text fill="#404040" font-family="Comic Sans MS,Comic Sans MS_MSFontService,sans-serif" font-weight="400" font-size="64" transform="matrix(1 0 0 1 3935.35 1926)">-</text><text fill="#404040" font-family="Comic Sans MS,Comic Sans MS_MSFontService,sans-serif" font-weight="400" font-size="64" transform="matrix(1 0 0 1 3962.28 1926)">adolescent </text><text fill="#404040" font-family="Comic Sans MS,Comic Sans MS_MSFontService,sans-serif" font-weight="400" font-size="64" transform="matrix(1 0 0 1 3337.22 2003)">interactions in Chinese families)</text><text fill="#595959" font-family="Comic Sans MS,Comic Sans MS_MSFontService,sans-serif" font-weight="700" font-size="73" transform="matrix(1 0 0 1 2043.14 1254)">Bridging </text><text fill="#7194A7" font-family="Comic Sans MS,Comic Sans MS_MSFontService,sans-serif" font-weight="700" font-size="73" transform="matrix(1 0 0 1 1935.73 1342)">ILD Methods,</text><text fill="#9B82BB" font-family="Comic Sans MS,Comic Sans MS_MSFontService,sans-serif" font-weight="700" font-size="73" transform="matrix(1 0 0 1 1915.95 1430)">Generative AI,</text><text fill="#72AD8F" font-family="Comic Sans MS,Comic Sans MS_MSFontService,sans-serif" font-weight="700" font-size="73" transform="matrix(1 0 0 1 1857.24 1518)">&amp; Precision Health</text><text fill="#9B82BB" font-family="Comic Sans MS,Comic Sans MS_MSFontService,sans-serif" font-weight="700" font-size="64" transform="matrix(1 0 0 1 46.5286 1873)">LLM</text><text fill="#9B82BB" font-family="Comic Sans MS,Comic Sans MS_MSFontService,sans-serif" font-weight="700" font-size="64" transform="matrix(1 0 0 1 174.289 1873)">-</text><text fill="#9B82BB" font-family="Comic Sans MS,Comic Sans MS_MSFontService,sans-serif" font-weight="700" font-size="64" transform="matrix(1 0 0 1 213.247 1873)">based multi</text><text fill="#9B82BB" font-family="Comic Sans MS,Comic Sans MS_MSFontService,sans-serif" font-weight="700" font-size="64" transform="matrix(1 0 0 1 569.029 1873)">-</text><text fill="#9B82BB" font-family="Comic Sans MS,Comic Sans MS_MSFontService,sans-serif" font-weight="700" font-size="64" transform="matrix(1 0 0 1 607.987 1873)">agent system</text><path d="M0 0 325.667 0.000360892" stroke="#7194A7" stroke-width="6.875" stroke-linecap="square" stroke-miterlimit="8" stroke-dasharray="20.625 6.875" fill="none" fill-rule="evenodd" transform="matrix(-1 0 0 1 1840.17 780.5)"/><path d="M0 0 0.000360892 101.543" stroke="#7194A7" stroke-width="6.875" stroke-linecap="square" stroke-miterlimit="8" stroke-dasharray="20.625 6.875" fill="none" fill-rule="evenodd" transform="matrix(1 0 0 -1 2185.5 435.043)"/><path d="M0 0 325.667 0.000360892" stroke="#7194A7" stroke-width="6.875" stroke-linecap="square" stroke-miterlimit="8" stroke-dasharray="20.625 6.875" fill="none" fill-rule="evenodd" transform="matrix(-1 0 0 1 2742.17 660.5)"/><path d="M0 0 325.667 0.000360892" stroke="#7194A7" stroke-width="6.875" stroke-linecap="square" stroke-miterlimit="8" stroke-dasharray="20.625 6.875" fill="none" fill-rule="evenodd" transform="matrix(-1 0 0 1 2725.17 878.5)"/><path d="M0 0 154.558 0.000360892" stroke="#9B82BB" stroke-width="6.875" stroke-linecap="square" stroke-miterlimit="8" stroke-dasharray="20.625 6.875" fill="none" fill-rule="evenodd" transform="matrix(-1 0 0 1 1206.06 1846.5)"/><path d="M0 0 154.558 0.000360892" stroke="#72AD8F" stroke-width="6.875" stroke-linecap="square" stroke-miterlimit="8" stroke-dasharray="20.625 6.875" fill="none" fill-rule="evenodd" transform="matrix(-1 0 0 1 3315.06 1525.5)"/><path d="M0 0 154.558 0.000360892" stroke="#72AD8F" stroke-width="6.875" stroke-linecap="square" stroke-miterlimit="8" stroke-dasharray="20.625 6.875" fill="none" fill-rule="evenodd" transform="matrix(-1 0 0 1 3305.06 1840.5)"/><text fill="#72AD8F" font-family="Comic Sans MS,Comic Sans MS_MSFontService,sans-serif" font-weight="700" font-size="64" transform="matrix(1 0 0 1 3337.22 2233)">State mindfulness …</text><path d="M0 0 215.659 0 215.659 190.982" stroke="#72AD8F" stroke-width="6.875" stroke-linecap="square" stroke-miterlimit="8" stroke-dasharray="20.625 6.875" fill="none" fill-rule="evenodd" transform="matrix(1.83697e-16 1 1 -1.83697e-16 3121.5 1906.5)"/><text fill="#72AD8F" font-family="Comic Sans MS,Comic Sans MS_MSFontService,sans-serif" font-weight="700" font-size="64" transform="matrix(1 0 0 1 3337.22 2135)">Suicidal ideation</text><g><g><g><path d="M2864.32 1455.86C2863.75 1455.41 2859.13 1451.9 2846.32 1451.06 2845.58 1450.89 2844.88 1450.56 2844.28 1450.1 2843.46 1449.59 2842.72 1448.97 2842.06 1448.27 2841.07 1447.1 2839.96 1446.14 2839.06 1444.82 2835.96 1439.87 2831.31 1436.1 2825.83 1434.08 2824.63 1433.48 2819.98 1434.08 2822.2 1437.29 2826.94 1443.85 2829.46 1447.39 2829.76 1447.91 2830.49 1449.01 2831.36 1450.02 2832.34 1450.91 2833.12 1451.81 2833.96 1452.62 2834.77 1453.49 2832.82 1452.37 2830.96 1451.1 2829.22 1449.68 2828.82 1449.09 2828.46 1448.46 2828.14 1447.82 2827.72 1447.1 2827.24 1446.41 2826.76 1445.72 2826.16 1444.87 2825.55 1444.03 2824.93 1443.2L2822.47 1440.2C2821.92 1439.59 2821.41 1438.95 2820.94 1438.28 2819.72 1436.89 2819.85 1434.76 2821.25 1433.54 2821.87 1432.98 2822.69 1432.69 2823.52 1432.7 2823.52 1432.31 2822.35 1422.23 2822.17 1420.7 2821.63 1415.48 2821 1412 2818.3 1410.89 2817.7 1410.6 2816.98 1410.76 2816.56 1411.28 2815.79 1413.33 2815.39 1415.51 2815.36 1417.7 2814.73 1423.54 2814.42 1429.41 2814.43 1435.28 2814.58 1438.28 2823.91 1458.89 2826.58 1462.07 2828.36 1464.19 2836.22 1469.27 2850.16 1477.31 2852.66 1479.05 2854.31 1481.76 2854.72 1484.78L2854.72 1493.27 2877.28 1493.27 2877.28 1485.5C2877.28 1484.06 2877.58 1482.5 2877.73 1481.21 2878.12 1479.23 2878.12 1477.19 2877.73 1475.21 2875.61 1467.41 2870.88 1460.58 2864.32 1455.86ZM2946.64 1417.7C2946.61 1415.51 2946.21 1413.33 2945.44 1411.28 2945.03 1410.75 2944.3 1410.59 2943.7 1410.89 2940.91 1411.88 2940.37 1415.48 2939.86 1420.34 2939.68 1422.02 2938.63 1432.1 2938.51 1432.34 2940.37 1432.28 2941.92 1433.74 2941.98 1435.59 2942.01 1436.52 2941.65 1437.41 2941 1438.07 2940.53 1438.74 2940.02 1439.39 2939.47 1439.99L2937.01 1442.99C2936.38 1443.83 2935.75 1444.67 2935.18 1445.51 2934.61 1446.35 2934.22 1446.89 2933.8 1447.61 2933.48 1448.25 2933.12 1448.88 2932.72 1449.47 2930.98 1450.89 2929.12 1452.16 2927.17 1453.28 2927.98 1452.41 2928.82 1451.6 2929.6 1450.7 2930.58 1449.81 2931.45 1448.81 2932.18 1447.7 2932.63 1446.92 2939.59 1437.11 2939.74 1437.08 2941.99 1434.08 2937.31 1433.27 2936.11 1433.87 2930.65 1435.97 2926.04 1439.82 2923 1444.82 2922.07 1446.14 2920.96 1447.1 2920 1448.27 2919.35 1448.97 2918.6 1449.58 2917.78 1450.07 2917.19 1450.55 2916.49 1450.89 2915.74 1451.06 2902.93 1451.9 2898.31 1455.41 2897.74 1455.86 2891.21 1460.61 2886.5 1467.46 2884.42 1475.27 2884.03 1477.25 2884.03 1479.29 2884.42 1481.27 2884.57 1482.71 2884.84 1484.27 2884.87 1485.59L2884.87 1493.39 2907.43 1493.39 2907.43 1484.78C2907.84 1481.76 2909.49 1479.05 2911.99 1477.31 2925.99 1469.31 2933.85 1464.23 2935.57 1462.07 2938.15 1458.83 2947.57 1438.25 2947.57 1435.28 2947.58 1429.41 2947.26 1423.54 2946.64 1417.7ZM2894.59 1444.34C2905.3 1434.29 2918.59 1421.78 2920.39 1410.68 2921.92 1404.01 2920.57 1397.01 2916.67 1391.39 2912.29 1386.11 2905.86 1382.95 2899 1382.72L2896.81 1382.72C2891.06 1382.76 2885.49 1384.73 2881 1388.33 2876.51 1384.69 2870.91 1382.68 2865.13 1382.63L2862.94 1382.63C2856.1 1382.88 2849.7 1386.03 2845.33 1391.3 2841.43 1396.92 2840.08 1403.93 2841.61 1410.59 2843.44 1421.69 2856.61 1434.2 2867.41 1444.25 2870.97 1447.83 2873.28 1450.07 2874.34 1450.97 2876.17 1452.68 2878.51 1453.74 2881 1453.97 2883.49 1453.75 2885.84 1452.69 2887.66 1450.97 2888.72 1450.07 2891.03 1447.83 2894.59 1444.25L2894.59 1444.34ZM2867.41 1395.89C2860.97 1395.53 2855.45 1400.43 2855.05 1406.87 2855.05 1408.71 2853.56 1410.2 2851.72 1410.2 2849.88 1410.2 2848.39 1408.71 2848.39 1406.87 2848.81 1396.76 2857.3 1388.89 2867.41 1389.23 2869.25 1389.28 2870.7 1390.8 2870.66 1392.64 2870.61 1394.42 2869.18 1395.84 2867.41 1395.89Z" fill="#FFFFFF"/></g></g></g><g><g><g><path d="M118.95 109.668 92.976 109.668C90.87 109.668 89.232 107.952 89.232 105.924L89.232 101.712 111.618 101.712C113.724 101.712 115.362 99.996 115.362 97.968L115.362 38.22C115.362 36.114 113.646 34.476 111.618 34.476L93.054 34.476 93.054 26.442C93.054 22.308 89.7 18.876 85.488 18.876L70.278 18.876C66.144 18.876 62.712 22.23 62.712 26.442L62.712 34.476 43.524 34.476C41.418 34.476 39.78 36.192 39.78 38.22L39.78 97.89C39.78 99.996 41.496 101.634 43.524 101.634L66.534 101.634 66.534 105.846C66.534 107.952 64.818 109.59 62.79 109.59L36.27 109.59C34.164 109.59 32.526 111.306 32.526 113.334L32.526 135.486C32.526 137.592 34.242 139.23 36.27 139.23L119.028 139.23C121.134 139.23 122.772 137.514 122.772 135.486L122.772 113.334C122.772 111.384 121.056 109.668 118.95 109.668ZM100.542 67.782C100.542 71.916 97.188 75.348 92.976 75.348 88.842 75.348 85.41 71.994 85.41 67.782 85.41 63.648 88.764 60.216 92.976 60.216 97.11 60.216 100.542 63.57 100.542 67.782ZM70.278 26.442 85.488 26.442 85.488 34.476 70.278 34.476 70.278 26.442ZM55.536 67.782C55.536 63.648 58.89 60.216 63.102 60.216 67.236 60.216 70.668 63.57 70.668 67.782 70.668 71.916 67.314 75.348 63.102 75.348 58.89 75.348 55.536 71.916 55.536 67.782ZM126.828 52.182 126.828 83.304C126.828 85.41 125.112 87.048 123.084 87.048 120.978 87.048 119.34 85.332 119.34 83.304L119.34 52.182C119.34 50.076 121.056 48.438 123.084 48.438 125.112 48.438 126.828 50.154 126.828 52.182ZM138.06 59.982 138.06 75.114C138.06 77.22 136.344 78.858 134.316 78.858 132.21 78.858 130.572 77.142 130.572 75.114L130.572 59.982C130.572 57.876 132.288 56.238 134.316 56.238 136.344 56.238 138.06 57.954 138.06 59.982ZM32.526 87.126C30.42 87.126 28.782 85.41 28.782 83.382L28.782 52.182C28.782 50.076 30.498 48.438 32.526 48.438 34.632 48.438 36.27 50.154 36.27 52.182L36.27 83.304C36.348 85.41 34.632 87.126 32.526 87.126ZM25.038 59.982 25.038 75.114C25.038 77.22 23.322 78.858 21.294 78.858 19.188 78.858 17.55 77.142 17.55 75.114L17.55 59.982C17.55 57.876 19.266 56.238 21.294 56.238 23.4 56.238 25.038 57.954 25.038 59.982Z" fill="#FFFFFF" transform="matrix(1 0 0 1.00641 1416 1353)"/></g></g></g><g><g><g><path d="M105.804 120.528 18.252 120.528C15.696 120.528 13.68 122.616 13.68 125.1 13.68 127.584 15.768 129.672 18.252 129.672L105.804 129.672C108.36 129.672 110.376 127.584 110.376 125.1 110.376 122.616 108.36 120.528 105.804 120.528Z" fill="#FFFFFF" transform="matrix(1 0 0 1.00694 2116 482)"/><path d="M128.916 117.18 117.972 106.236C121.86 101.34 123.948 95.292 123.948 88.884 123.948 88.416 123.948 88.02 123.876 87.552L123.948 87.552 123.948 23.004C123.948 18.216 120.06 14.328 115.272 14.328L22.968 14.328C18.18 14.328 14.292 18.216 14.292 23.004L14.292 94.968C14.292 99.756 18.18 103.644 22.968 103.644L72.288 103.644C77.184 111.636 86.076 116.964 96.084 116.964 101.52 116.964 106.776 115.416 111.276 112.536L122.58 123.84C124.38 125.64 127.296 125.64 129.096 123.84 130.752 121.896 130.752 118.98 128.916 117.18ZM73.98 61.488C72.216 62.964 69.696 62.964 68.004 61.488L57.204 52.2C56.52 51.588 55.44 51.588 54.792 52.2L38.988 65.844C37.044 67.536 34.164 67.248 32.544 65.376 30.852 63.432 31.14 60.552 33.012 58.932L53.028 41.652C54.792 40.176 57.312 40.176 59.004 41.652L69.804 50.976C70.488 51.588 71.568 51.588 72.216 50.976L93.636 32.436C95.58 30.744 98.46 31.032 100.08 32.904 101.772 34.848 101.484 37.728 99.612 39.348L73.98 61.488ZM96.012 107.712C85.68 107.712 77.256 99.324 77.256 88.956 77.256 78.588 85.644 70.2 96.012 70.2 106.38 70.2 114.768 78.588 114.768 88.956 114.768 99.324 106.344 107.712 96.012 107.712Z" fill="#FFFFFF" transform="matrix(1 0 0 1.00694 2116 482)"/></g></g></g><g><g><g><path d="M2152.47 1744C2149.73 1742.87 2148.42 1739.74 2149.55 1737 2150.67 1734.26 2153.81 1732.95 2156.55 1734.08 2173.95 1741.18 2193.47 1740.99 2210.72 1733.54 2213.44 1732.36 2216.6 1733.6 2217.78 1736.32 2218.96 1739.04 2217.71 1742.2 2215 1743.38 2195.09 1751.97 2172.56 1752.19 2152.48 1743.99ZM2259.88 1693.2C2258.98 1696.02 2255.96 1697.58 2253.14 1696.68 2250.37 1695.79 2248.8 1692.86 2249.62 1690.06 2259.33 1658.33 2245.37 1624.15 2216.23 1608.29 2213.62 1606.88 2212.66 1603.62 2214.08 1601.01 2215.49 1598.41 2218.75 1597.45 2221.35 1598.86 2254.98 1617.16 2271.09 1656.59 2259.88 1693.2ZM2148.32 1596.96C2151.04 1595.77 2154.2 1597 2155.39 1599.72 2156.52 1602.31 2155.45 1605.33 2152.94 1606.63 2121.61 1621.65 2106.09 1657.42 2116.53 1690.56 2117.36 1693.4 2115.72 1696.38 2112.88 1697.21 2110.12 1698.01 2107.22 1696.5 2106.3 1693.78 2094.26 1655.54 2112.17 1614.28 2148.32 1596.96Z" fill="#515151"/><path d="M2184.36 1615.91C2172.51 1615.92 2162.9 1606.32 2162.89 1594.47 2162.89 1582.62 2172.49 1573.01 2184.33 1573 2196.18 1572.99 2205.79 1582.59 2205.8 1594.44 2205.8 1594.46 2205.8 1594.49 2205.8 1594.51 2205.77 1606.33 2196.18 1615.9 2184.36 1615.91ZM2184.36 1605.18C2190.29 1605.18 2195.09 1600.38 2195.09 1594.46 2195.09 1588.53 2190.29 1583.73 2184.36 1583.73 2178.44 1583.73 2173.63 1588.53 2173.63 1594.46 2173.63 1600.38 2178.44 1605.18 2184.36 1605.18ZM2184.26 1698.85C2168.72 1698.82 2156.14 1686.2 2156.18 1670.65 2156.21 1655.11 2168.83 1642.53 2184.38 1642.56 2199.91 1642.59 2212.49 1655.21 2212.47 1670.75 2212.44 1686.29 2199.82 1698.88 2184.28 1698.85 2184.27 1698.85 2184.27 1698.85 2184.26 1698.85ZM2184.26 1688.12C2193.89 1688.16 2201.72 1680.38 2201.75 1670.75 2201.78 1661.12 2194 1653.29 2184.38 1653.26 2174.75 1653.23 2166.92 1661.01 2166.89 1670.64 2166.89 1670.67 2166.89 1670.71 2166.89 1670.75 2166.89 1680.35 2174.66 1688.15 2184.26 1688.18ZM2126.62 1744.59C2114.77 1744.59 2105.17 1734.99 2105.17 1723.14 2105.17 1711.29 2114.77 1701.69 2126.62 1701.69 2138.47 1701.69 2148.07 1711.29 2148.07 1723.14 2148.07 1734.99 2138.47 1744.59 2126.62 1744.59ZM2126.62 1733.87C2132.54 1733.87 2137.35 1729.06 2137.35 1723.14 2137.35 1717.22 2132.54 1712.41 2126.62 1712.41 2120.7 1712.41 2115.89 1717.22 2115.89 1723.14 2115.89 1729.06 2120.7 1733.87 2126.62 1733.87ZM2239.21 1744.59C2227.37 1744.59 2217.76 1734.99 2217.76 1723.14 2217.76 1711.29 2227.37 1701.69 2239.21 1701.69 2251.06 1701.69 2260.67 1711.29 2260.67 1723.14 2260.67 1734.99 2251.06 1744.59 2239.21 1744.59ZM2239.21 1733.87C2245.14 1733.88 2249.95 1729.08 2249.96 1723.15 2249.96 1717.23 2245.17 1712.42 2239.24 1712.41 2233.32 1712.41 2228.51 1717.2 2228.5 1723.13 2228.5 1723.15 2228.5 1723.17 2228.5 1723.2 2228.5 1729.12 2233.3 1733.92 2239.23 1733.92Z" fill="#515151"/><path d="M2188.34 1642.41C2188.34 1645.37 2185.94 1647.77 2182.98 1647.77 2180.02 1647.77 2177.62 1645.37 2177.62 1642.41L2177.62 1640.09C2177.62 1637.12 2180.02 1634.72 2182.98 1634.72 2185.94 1634.72 2188.34 1637.12 2188.34 1640.09ZM2206.13 1652.82C2204.23 1655.09 2200.84 1655.38 2198.57 1653.47 2196.3 1651.56 2196.01 1648.17 2197.92 1645.91L2199.47 1644.14C2201.38 1641.87 2204.76 1641.58 2207.03 1643.49 2209.3 1645.4 2209.59 1648.78 2207.68 1651.05ZM2213.13 1672.17C2210.2 1672.63 2207.46 1670.62 2207 1667.7 2206.56 1664.85 2208.44 1662.17 2211.26 1661.61L2213.57 1661.21C2216.5 1660.75 2219.24 1662.76 2219.7 1665.69 2220.14 1668.53 2218.26 1671.21 2215.44 1671.77ZM2206 1691.53C2203.55 1689.85 2202.93 1686.51 2204.6 1684.07 2206.09 1681.89 2208.96 1681.12 2211.35 1682.26L2213.36 1683.42C2215.92 1684.93 2216.77 1688.22 2215.26 1690.77 2213.78 1693.29 2210.55 1694.15 2208 1692.71ZM2188.02 1701.73C2187.22 1698.88 2188.88 1695.91 2191.73 1695.11 2194.29 1694.38 2197.01 1695.65 2198.09 1698.09L2198.93 1700.23C2199.86 1703.05 2198.34 1706.08 2195.52 1707.01 2192.83 1707.9 2189.9 1706.54 2188.85 1703.9ZM2167.77 1698.09C2168.87 1695.34 2171.98 1693.99 2174.74 1695.08 2177.38 1696.13 2178.74 1699.06 2177.85 1701.76L2177.05 1703.94C2176.03 1706.72 2172.94 1708.15 2170.16 1707.13 2167.37 1706.1 2165.95 1703.02 2166.97 1700.23ZM2154.6 1682.26C2157.18 1680.81 2160.45 1681.71 2161.91 1684.29 2163.35 1686.84 2162.48 1690.07 2159.96 1691.55L2158 1692.71C2155.42 1694.17 2152.15 1693.26 2150.69 1690.69 2149.25 1688.14 2150.12 1684.91 2152.64 1683.42ZM2154.68 1661.64C2157.61 1662.09 2159.61 1664.84 2159.16 1667.76 2158.7 1670.69 2155.96 1672.69 2153.03 1672.24 2152.96 1672.23 2152.89 1672.21 2152.82 1672.2L2150.51 1671.8C2147.58 1671.34 2145.58 1668.6 2146.03 1665.67 2146.49 1662.75 2149.23 1660.74 2152.16 1661.2 2152.23 1661.21 2152.3 1661.22 2152.37 1661.24ZM2168.02 1645.88C2169.93 1648.15 2169.64 1651.53 2167.37 1653.44 2165.1 1655.35 2161.72 1655.06 2159.81 1652.79L2158.3 1651.01C2156.4 1648.74 2156.69 1645.36 2158.95 1643.45 2161.22 1641.54 2164.61 1641.83 2166.51 1644.1Z" fill="#515151"/></g></g></g></g></svg>